<svg viewBox="0 0 512 512" xmlns="http://www.w3.org/2000/svg"><g data-name="1"><path d="M179 388h-75.65a49.27 49.27 0 0 1-49.22-49.21V237.21A49.27 49.27 0 0 1 103.35 188H179a15 15 0 0 1 15 15v170a15 15 0 0 1-15 15Zm-75.65-170a19.24 19.24 0 0 0-19.22 19.21v101.58A19.24 19.24 0 0 0 103.35 358H164V218Z"/><path d="M295 452.92h-49.38A81.71 81.71 0 0 1 164 371.3V204.7a81.71 81.71 0 0 1 81.62-81.62H295a15 15 0 0 1 15 15v299.84a15 15 0 0 1-15 15Zm-49.38-299.84A51.68 51.68 0 0 0 194 204.7v166.6a51.68 51.68 0 0 0 51.62 51.62H280V153.08ZM358.57 351.57A15 15 0 0 1 348 326a53.73 53.73 0 0 0 0-76 15 15 0 0 1 21.22-21.22 83.79 83.79 0 0 1 0 118.36 15 15 0 0 1-10.65 4.43Z"/><path d="M404.5 397.5a15 15 0 0 1-10.61-25.61 118.77 118.77 0 0 0 0-167.78 15 15 0 0 1 21.22-21.22c57.95 58 57.95 152.26 0 210.22a15 15 0 0 1-10.61 4.39Z"/></g></svg>